HIERARCHY
ROOT Hips
{
	OFFSET 0.00 0.00 0.00
	CHANNELS 6 Xposition Yposition Zposition Xrotation Yrotation Zrotation
	JOINT Spine
	{
		OFFSET 0.00000 5.89385 0.00000
		CHANNELS 3 Xrotation Yrotation Zrotation
		JOINT Head
		{
			OFFSET 0.00000 16.44715 0.00000
			CHANNELS 3 Xrotation Yrotation Zrotation
			End Site
			{
				OFFSET 0.00000 4.52755 0.00000
			}
		}
		JOINT LeftShoulder
		{
			OFFSET 0.00000 10.90038 0.00000
			CHANNELS 3 Xrotation Yrotation Zrotation
			JOINT LeftArm
			{
				OFFSET 8.21946 0.00000 0.00000
				CHANNELS 3 Xrotation Yrotation Zrotation
				JOINT LeftForeArm
				{
					OFFSET 11.09494 0.00000 0.00000
					CHANNELS 3 Yrotation Zrotation Xrotation
					JOINT LeftHand
					{
						OFFSET 9.10388 0.00000 0.00000
						CHANNELS 3 Xrotation Yrotation Zrotation
						JOINT LeftHandThumb1
						{
							OFFSET 0.00000 0.00000 0.00000
							CHANNELS 3 Xrotation Zrotation Yrotation
							End Site
							{
								OFFSET 0.00000 0.00000 3.93700
							}
						}
						End Site
						{
							OFFSET 3.93700 0.00000 0.00000
						}
					}
				}
			}
		}
		JOINT RightShoulder
		{
			OFFSET 0.00000 10.90038 0.00000
			CHANNELS 3 Xrotation Yrotation Zrotation
			JOINT RightArm
			{
				OFFSET -8.21946 0.00000 0.00000
				CHANNELS 3 Xrotation Yrotation Zrotation
				JOINT RightForeArm
				{
					OFFSET -11.09494 0.00000 0.00000
					CHANNELS 3 Yrotation Zrotation Xrotation
					JOINT RightHand
					{
						OFFSET -9.10388 0.00000 0.00000
						CHANNELS 3 Xrotation Yrotation Zrotation
						JOINT RightHandThumb1
						{
							OFFSET 0.00000 0.00000 0.00000
							CHANNELS 3 Xrotation Zrotation Yrotation
							End Site
							{
								OFFSET 0.00000 0.00000 3.93700
							}
						}
						End Site
						{
							OFFSET -3.93700 0.00000 0.00000
						}
					}
				}
			}
		}
	}
	JOINT LeftUpLeg
	{
		OFFSET 3.69794 0.00000 0.00000
		CHANNELS 3 Xrotation Yrotation Zrotation
		JOINT LeftLeg
		{
			OFFSET 0.00000 -16.18147 0.00000
			CHANNELS 3 Xrotation Yrotation Zrotation
			JOINT LeftFoot
			{
				OFFSET 0.00000 -16.50139 0.00000
				CHANNELS 3 Xrotation Yrotation Zrotation
				JOINT LeftToeBase
				{
					OFFSET 0.00000 -1.65857 6.18989
					CHANNELS 3 Xrotation Yrotation Zrotation
					End Site
					{
						OFFSET 0.00000 0.00000 2.95275
					}
				}
			}
		}
	}
	JOINT RightUpLeg
	{
		OFFSET -3.69794 0.00000 0.00000
		CHANNELS 3 Xrotation Yrotation Zrotation
		JOINT RightLeg
		{
			OFFSET 0.00000 -16.18147 0.00000
			CHANNELS 3 Xrotation Yrotation Zrotation
			JOINT RightFoot
			{
				OFFSET 0.00000 -16.50139 0.00000
				CHANNELS 3 Xrotation Yrotation Zrotation
				JOINT RightToeBase
				{
					OFFSET 0.00000 -1.65857 6.18989
					CHANNELS 3 Xrotation Yrotation Zrotation
					End Site
					{
						OFFSET 0.00000 0.00000 2.95275
					}
				}
			}
		}
	}
}
MOTION
Frames: 15
Frame Time: 0.008333
 1.0723 35.6600 2.6704 -54.2388 -72.7304 -50.0940 7.9464 -0.0889 -10.1171 10.8165 -6.8296 4.3857 2.3685 -7.0431 24.4681 -96.0851 -46.3960 -139.4993 -99.1699 -0.0000 -34.4825 -7.9372 26.0304 17.6252 33.1476 -0.0000 26.2537 24.4130 -9.3103 -24.5307 -104.0457 -0.7137 54.0718 1.8929 -0.0000 -56.0986 1.1323 10.0273 -6.4762 32.8623 0.0000 -24.3270 14.9367 8.2152 4.3392 11.4255 0.0000 0.0000 -13.8412 2.8243 -12.2941 9.9476 0.0000 -0.0000 20.2704 -23.3838 -9.7279 1.4577 0.0000 0.0000 -12.3720 -4.0964 20.4929 14.6616 -0.0000 -0.0000
 1.0800 35.6604 2.6710 -54.0364 -72.6936 -49.8873 8.0042 -0.0330 -10.1432 10.7485 -6.8579 4.4505 2.3835 -7.0227 24.4889 -96.1321 -46.4524 -139.5379 -99.1728 -0.0000 -34.6251 -7.9523 26.0730 17.6318 33.1476 -0.0000 26.2537 24.5504 -9.2898 -24.4842 -103.6333 -0.3695 54.1576 1.3562 -0.0000 -55.1247 1.0522 9.7448 -6.1931 32.8623 0.0000 -24.3270 14.9058 8.2031 4.3428 11.4179 -0.0000 0.0000 -13.8394 2.7748 -12.2569 9.9844 -0.0000 -0.0000 20.2555 -23.4498 -9.7207 1.4644 -0.0000 0.0000 -12.3626 -4.0930 20.4909 14.6229 -0.0000 0.0000
 1.0887 35.6616 2.6722 -53.8355 -72.6692 -49.6744 8.0489 0.0266 -10.1783 10.6914 -6.8694 4.5206 2.4040 -7.0071 24.4987 -96.1951 -46.5282 -139.5923 -99.1838 -0.0000 -34.8127 -8.0068 26.1906 17.6772 33.1476 -0.0000 26.2537 24.6752 -9.2550 -24.4308 -103.2990 -0.1645 54.2651 0.9299 -0.0000 -53.8270 1.0207 9.5271 -6.1436 32.8623 0.0000 -24.3270 14.8692 8.1551 4.3382 11.4048 -0.0000 0.0000 -13.8026 2.7503 -12.3095 9.9459 0.0000 -0.0000 20.2305 -23.5022 -9.7242 1.4627 0.0000 -0.0000 -12.3497 -4.1025 20.5074 14.6190 0.0000 -0.0000
 1.0962 35.6623 2.6725 -53.6508 -72.6376 -49.4861 8.0999 0.0897 -10.2087 10.6554 -6.8802 4.6044 2.3942 -7.0374 24.5355 -96.2051 -46.5925 -139.6467 -99.2091 -0.0000 -34.9875 -8.1116 26.4090 17.7679 33.1476 -0.0000 26.2537 24.7835 -9.1963 -24.3645 -102.6848 0.3526 54.3472 0.6341 -0.0000 -52.8155 0.9767 9.2065 -6.0824 32.8623 0.0000 -24.3270 14.8417 8.1291 4.3443 11.3927 0.0000 -0.0000 -13.7924 2.7144 -12.3225 9.9584 -0.0000 -0.0000 20.2201 -23.5718 -9.7127 1.4527 -0.0000 0.0000 -12.3418 -4.1040 20.4886 14.6454 0.0000 -0.0000
 1.1049 35.6630 2.6746 -53.4584 -72.6148 -49.2860 8.1455 0.1627 -10.2357 10.6111 -6.8932 4.6701 2.3838 -7.0518 24.5650 -96.2677 -46.6680 -139.7320 -99.1873 -0.0000 -35.2701 -8.1329 26.4207 17.8054 33.1476 -0.0000 26.2537 24.9088 -9.1529 -24.2902 -102.1566 0.7915 54.4323 0.4033 -0.0000 -51.6137 0.9452 8.9519 -6.0520 32.8623 0.0000 -24.3270 14.8087 8.0835 4.3387 11.3750 0.0000 -0.0000 -13.7903 2.7003 -12.3223 10.0427 0.0000 -0.0000 20.2050 -23.6276 -9.7090 1.4317 -0.0000 0.0000 -12.3224 -4.1108 20.4956 14.6624 -0.0000 0.0000
 1.1136 35.6632 2.6763 -53.3106 -72.5921 -49.1321 8.1989 0.2258 -10.2566 10.5588 -6.8623 4.7243 2.3760 -7.0408 24.5974 -96.3704 -46.7417 -139.8411 -99.1345 -0.0000 -35.5453 -8.1401 26.4195 17.8211 33.1476 -0.0000 26.2537 25.0914 -9.1262 -24.1928 -101.7311 1.2190 54.5255 0.2468 -0.0000 -50.1957 0.9283 8.7419 -6.0856 32.8623 0.0000 -24.3270 14.7689 8.0856 4.3348 11.3907 0.0000 -0.0000 -13.7893 2.6528 -12.2879 10.0170 -0.0000 -0.0000 20.1860 -23.6910 -9.7093 1.4249 0.0000 -0.0000 -12.3120 -4.0961 20.4943 14.6413 -0.0000 -0.0000
 1.1214 35.6636 2.6783 -53.2045 -72.5687 -49.0169 8.2535 0.2944 -10.2805 10.5494 -6.8321 4.7831 2.3931 -7.0320 24.6333 -96.4508 -46.7962 -139.9202 -99.0704 -0.0000 -35.8933 -8.1362 26.4906 17.7713 33.1476 -0.0000 26.2537 25.2493 -9.0842 -24.1100 -101.2718 1.6271 54.6240 0.1552 -0.0000 -48.6238 0.8930 8.4860 -6.0293 32.8623 0.0000 -24.3270 14.7500 8.0542 4.3286 11.3868 -0.0000 0.0000 -13.7833 2.6499 -12.3276 10.0585 0.0000 -0.0000 20.1754 -23.7495 -9.7133 1.4139 -0.0000 0.0000 -12.3068 -4.0846 20.4843 14.6715 0.0000 -0.0000
 1.1301 35.6632 2.6815 -53.1119 -72.5455 -48.9087 8.3189 0.3640 -10.2991 10.5176 -6.8187 4.8045 2.3999 -7.0317 24.6647 -96.5151 -46.8473 -140.0041 -98.9795 -0.0000 -36.1203 -8.0706 26.4899 17.6356 33.1476 -0.0000 26.2537 25.4419 -9.0490 -24.0358 -100.8132 2.0868 54.6882 0.1323 -0.0000 -46.9308 0.8683 8.1944 -6.0695 32.8623 0.0000 -24.3270 14.7285 8.0099 4.3100 11.3979 0.0000 0.0000 -13.7817 2.6470 -12.2960 10.0495 -0.0000 0.0000 20.1671 -23.7767 -9.7259 1.4079 -0.0000 0.0000 -12.3040 -4.0911 20.4766 14.6762 0.0000 -0.0000
 1.1391 35.6630 2.6840 -53.0264 -72.5237 -48.8161 8.3842 0.4310 -10.3021 10.4935 -6.8077 4.8162 2.3903 -7.0466 24.6831 -96.5796 -46.9198 -140.0896 -98.8948 -0.0000 -36.3817 -8.0229 26.4629 17.5522 33.1476 -0.0000 26.2537 25.5378 -8.9765 -24.0063 -100.2116 2.5684 54.7370 0.1503 -0.0000 -45.2849 0.8676 8.0152 -6.1985 32.8623 0.0000 -24.3270 14.6977 7.9591 4.2986 11.4252 0.0000 -0.0000 -13.7857 2.6641 -12.2824 10.0725 0.0000 -0.0000 20.1570 -23.7943 -9.7314 1.4089 0.0000 -0.0000 -12.3010 -4.1102 20.4805 14.6701 0.0000 -0.0000
 1.1497 35.6623 2.6874 -52.9581 -72.4965 -48.7312 8.4659 0.5078 -10.3100 10.4620 -6.8170 4.8117 2.4136 -7.0627 24.7231 -96.6901 -46.9871 -140.1588 -98.8303 -0.0000 -36.6474 -8.0070 26.4193 17.5443 33.1476 -0.0000 26.2537 25.6764 -8.9222 -23.9626 -99.6895 3.0612 54.7695 0.1889 -0.0000 -43.5421 0.8103 7.6985 -6.0272 32.8623 0.0000 -24.3270 14.6667 7.9003 4.2771 11.4692 -0.0000 -0.0000 -13.7915 2.6843 -12.2484 10.0432 0.0000 -0.0000 20.1488 -23.7937 -9.7457 1.4170 0.0000 0.0000 -12.3128 -4.1534 20.4801 14.6816 -0.0000 0.0000
 1.1600 35.6617 2.6917 -52.8358 -72.4619 -48.5918 8.5387 0.5601 -10.3040 10.4245 -6.8020 4.7673 2.4550 -7.0589 24.7423 -96.8077 -47.0642 -140.2387 -98.7589 -0.0000 -36.7888 -7.9637 26.3673 17.4840 33.1476 -0.0000 26.2537 25.7807 -8.8716 -23.9290 -99.2042 3.4905 54.8221 0.2481 -0.0000 -41.7817 0.7159 7.3967 -5.5440 32.8623 0.0000 -24.3270 14.6191 7.8439 4.2601 11.5284 0.0000 0.0000 -13.8099 2.6802 -12.2265 10.0731 -0.0000 0.0000 20.1297 -23.8359 -9.7652 1.4299 -0.0000 0.0000 -12.3159 -4.1505 20.4747 14.6875 0.0000 -0.0000
 1.1713 35.6608 2.6974 -52.7246 -72.4297 -48.4633 8.6099 0.5840 -10.2880 10.3786 -6.7966 4.7055 2.4675 -7.0431 24.7697 -96.8658 -47.1135 -140.3031 -98.7277 -0.0000 -36.9972 -7.9441 26.3976 17.4256 33.1476 -0.0000 26.2537 25.9028 -8.7953 -23.9171 -98.7066 3.9723 54.8370 0.3320 -0.0000 -40.1904 0.6081 7.0523 -4.9409 32.8623 0.0000 -24.3270 14.5695 7.7725 4.2396 11.5936 -0.0000 0.0000 -13.8243 2.6970 -12.1993 10.0436 -0.0000 -0.0000 20.1072 -23.8467 -9.7922 1.4551 -0.0000 0.0000 -12.3294 -4.1892 20.5276 14.7147 -0.0000 0.0000
 1.1821 35.6605 2.7035 -52.6231 -72.3941 -48.3473 8.6845 0.5977 -10.2714 10.3286 -6.7694 4.6701 2.4766 -7.0372 24.7954 -96.9202 -47.1697 -140.3614 -98.6951 -0.0000 -37.1706 -7.9541 26.4328 17.4262 33.1476 -0.0000 26.2537 26.0069 -8.7070 -23.9122 -98.2213 4.3815 54.8450 0.5018 -0.0000 -38.4169 0.4877 6.6187 -4.2235 32.8623 0.0000 -24.3270 14.5197 7.7185 4.2242 11.6658 0.0000 -0.0000 -13.8439 2.6881 -12.1745 10.0426 0.0000 -0.0000 20.0936 -23.8602 -9.8140 1.4711 -0.0000 0.0000 -12.3265 -4.2054 20.5313 14.6988 0.0000 -0.0000
 1.1929 35.6599 2.7103 -52.5251 -72.3603 -48.2339 8.7601 0.6193 -10.2394 10.2917 -6.7316 4.5859 2.4857 -7.0287 24.8043 -96.9639 -47.2435 -140.4157 -98.7022 -0.0000 -37.3080 -7.9497 26.3650 17.4561 33.1476 -0.0000 26.2537 26.0682 -8.6362 -23.9377 -97.7630 4.7213 54.8915 0.6836 -0.0000 -36.6101 0.3752 6.3312 -3.3982 32.8623 0.0000 -24.3270 14.4723 7.6755 4.2055 11.7341 -0.0000 -0.0000 -13.8644 2.6731 -12.1447 10.0562 -0.0000 -0.0000 20.0808 -23.8632 -9.8385 1.4855 0.0000 -0.0000 -12.3243 -4.2423 20.5637 14.7133 -0.0000 0.0000
 1.2037 35.6604 2.7178 -52.4396 -72.3324 -48.1189 8.8306 0.6459 -10.2250 10.2589 -6.6936 4.5104 2.5086 -7.0174 24.8168 -97.0264 -47.3222 -140.4820 -98.7238 -0.0000 -37.4672 -7.9241 26.3033 17.4382 33.1476 -0.0000 26.2537 26.1799 -8.5880 -23.9373 -97.3650 5.0798 54.9466 0.9249 -0.0000 -34.6853 0.2930 6.1564 -2.7304 32.8623 0.0000 -24.3270 14.4331 7.6065 4.1726 11.7860 0.0000 0.0000 -13.8575 2.6785 -12.1799 10.0469 -0.0000 0.0000 20.0583 -23.8793 -9.8789 1.4938 -0.0000 0.0000 -12.3150 -4.2700 20.6012 14.6953 0.0000 -0.0000
